<?xml version="1.0" encoding="utf-8"?>
<svg viewBox="-96.02 -111.081 200.002 228.572" xmlns="http://www.w3.org/2000/svg">
  <path d="M -74.292 -87.957 L -74.292 -83.78 L -57.584 -83.78 L -57.584 -87.957 C -57.584 -90.264 -55.717 -92.134 -53.407 -92.134 C -51.096 -92.134 -49.23 -90.264 -49.23 -87.957 L -49.23 -83.78 L -42.964 -83.78 C -39.505 -83.78 -36.698 -80.974 -36.698 -77.514 L -36.698 -71.248 L -95.178 -71.248 L -95.178 -77.514 C -95.178 -80.974 -92.373 -83.78 -88.912 -83.78 L -82.647 -83.78 L -82.647 -87.957 C -82.647 -90.264 -80.78 -92.134 -78.469 -92.134 C -76.159 -92.134 -74.292 -90.264 -74.292 -87.957 Z M -95.178 -67.071 L -36.698 -67.071 L -36.698 -31.566 C -36.698 -28.107 -39.505 -25.3 -42.964 -25.3 L -88.912 -25.3 C -92.373 -25.3 -95.178 -28.107 -95.178 -31.566 L -95.178 -67.071 Z M -86.824 -52.451 C -86.824 -51.303 -85.889 -50.363 -84.735 -50.363 L -80.558 -50.363 C -79.41 -50.363 -78.469 -51.303 -78.469 -52.451 L -78.469 -56.628 C -78.469 -57.777 -79.41 -58.717 -80.558 -58.717 L -84.735 -58.717 C -85.889 -58.717 -86.824 -57.777 -86.824 -56.628 L -86.824 -52.451 Z M -70.115 -52.451 C -70.115 -51.303 -69.175 -50.363 -68.027 -50.363 L -63.849 -50.363 C -62.701 -50.363 -61.761 -51.303 -61.761 -52.451 L -61.761 -56.628 C -61.761 -57.777 -62.701 -58.717 -63.849 -58.717 L -68.027 -58.717 C -69.175 -58.717 -70.115 -57.777 -70.115 -56.628 L -70.115 -52.451 Z M -51.318 -58.717 C -52.467 -58.717 -53.407 -57.777 -53.407 -56.628 L -53.407 -52.451 C -53.407 -51.303 -52.467 -50.363 -51.318 -50.363 L -47.141 -50.363 C -45.992 -50.363 -45.053 -51.303 -45.053 -52.451 L -45.053 -56.628 C -45.053 -57.777 -45.992 -58.717 -47.141 -58.717 L -51.318 -58.717 Z M -86.824 -35.743 C -86.824 -34.594 -85.889 -33.654 -84.735 -33.654 L -80.558 -33.654 C -79.41 -33.654 -78.469 -34.594 -78.469 -35.743 L -78.469 -39.92 C -78.469 -41.069 -79.41 -42.009 -80.558 -42.009 L -84.735 -42.009 C -85.889 -42.009 -86.824 -41.069 -86.824 -39.92 L -86.824 -35.743 Z M -68.027 -42.009 C -69.175 -42.009 -70.115 -41.069 -70.115 -39.92 L -70.115 -35.743 C -70.115 -34.594 -69.175 -33.654 -68.027 -33.654 L -63.849 -33.654 C -62.701 -33.654 -61.761 -34.594 -61.761 -35.743 L -61.761 -39.92 C -61.761 -41.069 -62.701 -42.009 -63.849 -42.009 L -68.027 -42.009 Z M -53.407 -35.743 C -53.407 -34.594 -52.467 -33.654 -51.318 -33.654 L -47.141 -33.654 C -45.992 -33.654 -45.053 -34.594 -45.053 -35.743 L -45.053 -39.92 C -45.053 -41.069 -45.992 -42.009 -47.141 -42.009 L -51.318 -42.009 C -52.467 -42.009 -53.407 -41.069 -53.407 -39.92 L -53.407 -35.743 Z" transform="matrix(3.42, 0, 0, 3.42, 229.489212, 204.017166)"/>
</svg>